<svg width="30" height="30" viewBox="0 0 30 30" fill="none" xmlns="http://www.w3.org/2000/svg">
<g clip-path="url(#clip0_445_286)">
<path d="M20.7733 0C20.8431 0 20.9129 0 20.9867 0C21.1579 2.11566 20.3504 3.69648 19.369 4.84126C18.406 5.97813 17.0873 7.08075 14.9545 6.91345C14.8123 4.82809 15.6211 3.36451 16.6012 2.22237C17.5102 1.15795 19.1766 0.210776 20.7733 0Z" fill="black"/>
<path d="M27.2296 22.0208C27.2296 22.0419 27.2296 22.0604 27.2296 22.0801C26.6302 23.8954 25.7753 25.4512 24.7319 26.895C23.7795 28.2058 22.6123 29.9697 20.5283 29.9697C18.7275 29.9697 17.5313 28.8118 15.6857 28.7802C13.7334 28.7485 12.6598 29.7484 10.8747 30C10.6706 30 10.4664 30 10.2661 30C8.95537 29.8103 7.89753 28.7723 7.12689 27.8369C4.85446 25.0731 3.09843 21.5031 2.77173 16.9346C2.77173 16.4867 2.77173 16.0401 2.77173 15.5922C2.91005 12.3225 4.49877 9.66411 6.61048 8.37574C7.72496 7.69072 9.25704 7.10713 10.963 7.36797C11.6941 7.48126 12.4411 7.73156 13.0958 7.97922C13.7163 8.21766 14.4922 8.64053 15.2273 8.61813C15.7252 8.60364 16.2205 8.34412 16.7225 8.16101C18.1926 7.63012 19.6338 7.0215 21.5334 7.30737C23.8164 7.65251 25.4367 8.66687 26.4379 10.2319C24.5067 11.461 22.9799 13.3132 23.2407 16.4761C23.4726 19.3493 25.143 21.0302 27.2296 22.0208Z" fill="black"/>
</g>
<defs>
<clipPath id="clip0_445_286">
<rect width="30" height="30" fill="white"/>
</clipPath>
</defs>
</svg>
