<svg width="18" height="20" viewBox="0 0 18 20" fill="none" xmlns="http://www.w3.org/2000/svg">
<path fill-rule="evenodd" clip-rule="evenodd" d="M17 20C16.6753 20 16.3592 19.8956 16.0984 19.7022L9.14999 14.55C9.0611 14.4833 8.93888 14.4833 8.84999 14.55L1.90163 19.7022C1.64081 19.8956 1.32471 20 1 20C0.5 20 0 19.5 0 19.0234V2C0 0.895431 0.895431 0 2 0H16C17.1046 0 18 0.895431 18 2V19C18 19.5 17.5 20 17 20ZM16 1.5H2C1.72386 1.5 1.5 1.72386 1.5 2V18.1875L7.94999 13.35C8.57221 12.8833 9.42776 12.8833 10.05 13.35L16.5 18.1875V2C16.5 1.72386 16.2761 1.5 16 1.5Z" fill="currentColor"/>
</svg>
