<svg width="30" height="30" viewBox="0 0 30 30" fill="none" xmlns="http://www.w3.org/2000/svg">
<g clip-path="url(#clip0_445_278)">
<path d="M22.2656 15C22.2668 16.7098 21.6645 18.3651 20.5648 19.6744C19.4652 20.9837 17.9387 21.8629 16.2544 22.1571C14.5701 22.4513 12.8361 22.1417 11.3577 21.2828C9.87926 20.4238 8.75143 19.0707 8.17284 17.4618L4.01709 20.7863C5.30929 23.2427 7.38728 25.1953 9.91925 26.3323C12.4512 27.4694 15.2911 27.7252 17.9856 27.0591C20.68 26.3929 23.0735 24.8432 24.784 22.6574C26.4944 20.4715 27.4232 17.7755 27.4219 15" fill="#00AC47"/>
<path d="M22.2657 15C22.2647 16.1559 21.9876 17.2949 21.4573 18.3221C20.9271 19.3492 20.1591 20.2348 19.2173 20.905L23.3258 24.1918C24.6141 23.0319 25.6444 21.6143 26.35 20.0309C27.0556 18.4475 27.4208 16.7335 27.4219 15" fill="#4285F4"/>
<path d="M7.73437 15C7.73617 14.1601 7.88456 13.327 8.17284 12.5382L4.01709 9.21362C3.07217 10.996 2.57813 12.9826 2.57812 15C2.57812 17.0173 3.07217 19.004 4.01709 20.7863L8.17284 17.4617C7.88456 16.6729 7.73617 15.8398 7.73437 15Z" fill="#FFBA00"/>
<path d="M15 7.73438C16.5374 7.73481 18.0344 8.22611 19.2731 9.1367L23.0794 5.58423C21.6664 4.366 19.9966 3.4826 18.1945 2.99994C16.3925 2.51728 14.5047 2.44783 12.672 2.79676C10.8393 3.1457 9.1091 3.90402 7.61047 5.01513C6.11184 6.12624 4.88349 7.56146 4.01709 9.21366L8.17284 12.5382C8.67967 11.1333 9.60686 9.91846 10.8284 9.05896C12.0499 8.19947 13.5064 7.73698 15 7.73438Z" fill="#EA4435"/>
<path d="M27.4219 14.0625V15L25.3125 18.2812H15.4688V13.125H26.4844C26.733 13.125 26.9715 13.2238 27.1473 13.3996C27.3231 13.5754 27.4219 13.8139 27.4219 14.0625Z" fill="#4285F4"/>
</g>
<defs>
<clipPath id="clip0_445_278">
<rect width="30" height="30" fill="white"/>
</clipPath>
</defs>
</svg>
